<?xml version="1.0" encoding="UTF-8"?>
<svg version="1.1" viewBox="0 0 620 450" xmlns="http://www.w3.org/2000/svg">
<path transform="translate(312,105)" d="m0 0 9 1 5 5 9 10 13 19 9 16 8 17 7 20 5 19 3 18 1 11v33l-3 23-6 25-8 22-10 21-10 16-12 16-12 14-5 4-12-13-13-17-10-16-11-21-9-24-6-24-3-20-1-13v-20l2-21 5-25 6-19 8-20 10-19 10-15 10-13 8-9zm2 8-10 11-12 17-10 18-8 17-9 27-4 20-2 16v36l4 27 5 19 8 22 10 20 12 19 9 11 8 10 5-4 11-14 12-18 12-23 9-24 5-20 3-21 1-15v-14l-2-24-5-24-8-24-12-25-10-16-9-12-9-11z" fill="#CF865B"/>
<path transform="translate(101,197)" d="m0 0h10l23 3 21 5 18 6 20 9 18 10 17 12 11 9 2 2 2 31 4 24 7 25 8 20 10 20 11 17 10 13 11 13 2 3h-13l-20-3-21-5-20-7-25-12-18-11-13-10-14-12-12-12-9-11-10-13-12-20-11-23-8-24-5-23-2-15v-13l4-6zm3 8-3 2 1 15 3 19 5 19 6 17 12 25 10 16 9 12 12 14 14 14 14 11 14 10 22 12 25 10 22 6 11 2h5l-4-6-12-17-10-18-9-19-7-20-5-18-4-22-2-27-2-7-14-11-19-12-25-12-24-8-17-4-25-3z" fill="#CE855A"/>
<path transform="translate(519,198)" d="m0 0h12l6 4 3 9-3 24-6 25-8 22-11 23-12 19-13 16-9 10-14 14-14 11-13 9-17 10-22 10-25 8-26 5-8 1h-14l2-4 7-7 11-14 12-18 11-20 10-25 6-21 4-21 2-20 1-16 15-12 15-10 22-12 20-8 20-6 19-4zm4 8-24 3-25 6-24 9-23 12-12 8-16 12-1 20-4 27-5 20-7 21-10 22-10 17-11 16-6 8v1l12-1 17-4 24-8 25-12 14-9 16-12 12-11 16-16 15-20 11-19 10-21 7-21 5-22 2-16v-8l-3-2z" fill="#CE855A"/>
<path transform="translate(520,307)" d="m0 0 17 1 22 4 24 7 25 11 7 5 2 5v6l-8 12-11 13-11 12-13 12-13 10-15 10-25 13-18 7-17 5-26 5-27 2-25-1-25-4-25-7-15-6 2-2 23-4 24-7 20-8 20-10 17-11 13-10 14-12 11-11 9-11 10-13 12-19zm5 9-11 17-12 16-10 11-7 8-12 11-14 11-18 12-18 10-23 10-25 8 2 2 19 4 16 2h35l23-3 24-6 22-8 16-8 16-9 19-14 13-12 11-11 9-11 9-13-2-4-19-9-20-7-21-5-13-2z" fill="#CE8559"/>
<path transform="translate(106,313)" d="m0 0h8l7 10 11 16 12 14 8 9 8 7 10 9 18 13 21 12 17 8 20 7 18 5 29 5-3 2-20 8-25 7-19 3-9 1h-36l-22-3-22-5-23-8-25-12-19-12-14-11-13-12-11-11-9-11-6-9v-7l4-6 23-12 21-8 23-6zm-5 9-23 5-16 5-20 8-15 8-2 4 8 11 9 10 17 17 13 10 15 10 16 9 24 10 24 7 24 4 11 1h27l24-3 21-5 3-2-24-7-22-9-25-13-19-13-11-9-12-11-13-13-11-14-10-14-4-6z" fill="#CE8459"/>
<path transform="translate(406,87)" d="m0 0 5 2 11 9h4l11-9 5-2-1 4-11 13 2 4 10 12v3l-5-2-12-10-4 2-11 9-4 1 2-5 10-12-2-5-9-10z" fill="#CE8559"/>
<path transform="translate(186,92)" d="m0 0 5 1 11 10 4 1 7-7 7-5 3 1-8 11-5 6 11 13 2 5-5-2-11-9-3-2-7 7-9 6-2-1 4-6 9-10-2-4-10-12z" fill="#CE865A"/>
<path transform="translate(290,0)" d="m0 0 5 1 12 11 4-2 12-10h3l-2 5-10 12 3 5 8 9 1 5-7-4-10-9-16 12-3 1 2-5 9-11 2-3-10-11z" fill="#CE8559"/>
<path transform="translate(64,239)" d="m0 0 1 2-6 7 1 4 5 6-1 2-9-7-8 6-2 1 2-5 4-4-2-5-4-4v-2l5 2 4 4 4-2z" fill="#CF865B"/>
<path transform="translate(578,239)" d="m0 0 1 2-6 7 1 4 5 6-1 2-9-7-7 6-3 1 2-5 4-4-2-5-4-5 2-1 7 6 4-2z" fill="#CE855A"/>
</svg>
